<?xml version="1.0" encoding="UTF-8"?>
<svg width="1015px" height="300px" viewBox="0 0 1015 300" version="1.1" xmlns="http://www.w3.org/2000/svg" xmlns:xlink="http://www.w3.org/1999/xlink">
    <title>mnml</title>
    <g id="Page-1" stroke="none" stroke-width="1" fill="none" fill-rule="evenodd">
        <g id="mnml" transform="translate(0.5188, 0.2)" fill-rule="nonzero">
            <g transform="translate(-0, 19.8)" fill="#000000" id="Path">
                <path d="M-1.0658141e-14,280 L-1.0658141e-14,83 L40.3625,83 L40.3625,106 L46.71875,106 C50.3729167,99.1458333 56.340625,93.01875 64.621875,87.61875 C72.903125,82.21875 84.1354167,79.51875 98.31875,79.51875 C113.014583,79.51875 124.838542,82.5552083 133.790625,88.628125 C142.742708,94.7010417 149.439583,102.370833 153.88125,111.6375 L160.24375,111.6375 C164.777083,102.545833 171.410417,94.9197917 180.14375,88.759375 C188.877083,82.5989583 201.216667,79.51875 217.1625,79.51875 C229.8,79.51875 241.095833,82.165625 251.05,87.459375 C261.004167,92.753125 268.911458,100.527083 274.771875,110.78125 C280.632292,121.035417 283.5625,133.647917 283.5625,148.61875 L283.5625,280 L242.4,280 L242.4,151.8 C242.4,139.841667 239.110417,130.615625 232.53125,124.121875 C225.952083,117.628125 216.708333,114.38125 204.8,114.38125 C191.933333,114.38125 181.64375,118.514583 173.93125,126.78125 C166.21875,135.047917 162.3625,146.960417 162.3625,162.51875 L162.3625,280 L121.2,280 L121.2,151.8 C121.2,139.841667 117.910417,130.615625 111.33125,124.121875 C104.752083,117.628125 95.5083333,114.38125 83.6,114.38125 C70.7333333,114.38125 60.44375,118.514583 52.73125,126.78125 C45.01875,135.047917 41.1625,146.960417 41.1625,162.51875 L41.1625,280 L-1.0658141e-14,280 Z"></path>
                <path d="M312.719922,280 L312.719922,83 L353.082422,83 L353.082422,112.5 L359.438672,112.5 C363.201172,104.354167 369.855339,96.8208333 379.401172,89.9 C388.947005,82.9791667 403.167839,79.51875 422.063672,79.51875 C437.063672,79.51875 450.386589,82.8427083 462.032422,89.490625 C473.678255,96.1385417 482.817839,105.56875 489.451172,117.78125 C496.084505,129.99375 499.401172,144.6 499.401172,161.6 L499.401172,280 L458.238672,280 L458.238672,164.7625 C458.238672,147.5875 453.988672,134.939583 445.488672,126.81875 C436.988672,118.697917 425.192839,114.6375 410.101172,114.6375 C393.047005,114.6375 379.413672,120.284375 369.201172,131.578125 C358.988672,142.871875 353.882422,159.166667 353.882422,180.4625 L353.882422,280 L312.719922,280 Z"></path>
                <path d="M528.559961,280 L528.559961,83 L568.922461,83 L568.922461,106 L575.278711,106 C578.932878,99.1458333 584.900586,93.01875 593.181836,87.61875 C601.463086,82.21875 612.695378,79.51875 626.878711,79.51875 C641.574544,79.51875 653.398503,82.5552083 662.350586,88.628125 C671.302669,94.7010417 677.999544,102.370833 682.441211,111.6375 L688.803711,111.6375 C693.337044,102.545833 699.970378,94.9197917 708.703711,88.759375 C717.437044,82.5989583 729.776628,79.51875 745.722461,79.51875 C758.359961,79.51875 769.655794,82.165625 779.609961,87.459375 C789.564128,92.753125 797.471419,100.527083 803.331836,110.78125 C809.192253,121.035417 812.122461,133.647917 812.122461,148.61875 L812.122461,280 L770.959961,280 L770.959961,151.8 C770.959961,139.841667 767.670378,130.615625 761.091211,124.121875 C754.512044,117.628125 745.268294,114.38125 733.359961,114.38125 C720.493294,114.38125 710.203711,118.514583 702.491211,126.78125 C694.778711,135.047917 690.922461,146.960417 690.922461,162.51875 L690.922461,280 L649.759961,280 L649.759961,151.8 C649.759961,139.841667 646.470378,130.615625 639.891211,124.121875 C633.312044,117.628125 624.068294,114.38125 612.159961,114.38125 C599.293294,114.38125 589.003711,118.514583 581.291211,126.78125 C573.578711,135.047917 569.722461,146.960417 569.722461,162.51875 L569.722461,280 L528.559961,280 Z"></path>
                <polygon points="841.279883 280 841.279883 0 882.442383 0 882.442383 280"></polygon>
            </g>
            <circle id="Oval" fill="#3B6FD4" cx="974.38125" cy="199.6" r="40"></circle>
        </g>
    </g>
</svg>